<svg xmlns="http://www.w3.org/2000/svg" xmlns:xlink="http://www.w3.org/1999/xlink" width="200" zoomAndPan="magnify" viewBox="0 0 150 149.999998" height="200" preserveAspectRatio="xMidYMid meet" version="1.0"><defs><clipPath id="f126ca998e"><path d="M 98.347656 25.792969 L 125 25.792969 L 125 52.769531 L 98.347656 52.769531 Z M 98.347656 25.792969 " clip-rule="nonzero"/></clipPath><clipPath id="a4b46000d2"><path d="M 111.707031 25.792969 C 104.328125 25.792969 98.347656 31.773438 98.347656 39.152344 C 98.347656 46.527344 104.328125 52.507812 111.707031 52.507812 C 119.085938 52.507812 125.066406 46.527344 125.066406 39.152344 C 125.066406 31.773438 119.085938 25.792969 111.707031 25.792969 " clip-rule="nonzero"/></clipPath><clipPath id="ff79528cbf"><path d="M 61.515625 61.269531 L 88.871094 61.269531 L 88.871094 88.246094 L 61.515625 88.246094 Z M 61.515625 61.269531 " clip-rule="nonzero"/></clipPath><clipPath id="b8fcee058c"><path d="M 75.125 61.269531 C 67.609375 61.269531 61.515625 67.304688 61.515625 74.75 C 61.515625 82.199219 67.609375 88.234375 75.125 88.234375 C 82.640625 88.234375 88.730469 82.199219 88.730469 74.75 C 88.730469 67.304688 82.640625 61.269531 75.125 61.269531 " clip-rule="nonzero"/></clipPath><clipPath id="283ccbe80f"><path d="M 24.832031 99.019531 L 51.8125 99.019531 L 51.8125 126.371094 L 24.832031 126.371094 Z M 24.832031 99.019531 " clip-rule="nonzero"/></clipPath><clipPath id="e47368ba82"><path d="M 38.316406 99.019531 C 30.871094 99.019531 24.832031 105.109375 24.832031 112.625 C 24.832031 120.140625 30.871094 126.234375 38.316406 126.234375 C 45.761719 126.234375 51.800781 120.140625 51.800781 112.625 C 51.800781 105.109375 45.761719 99.019531 38.316406 99.019531 " clip-rule="nonzero"/></clipPath></defs><g clip-path="url(#f126ca998e)"><g clip-path="url(#a4b46000d2)"><path fill="#000000" d="M 98.347656 25.792969 L 124.953125 25.792969 L 124.953125 52.394531 L 98.347656 52.394531 Z M 98.347656 25.792969 " fill-opacity="1" fill-rule="nonzero"/></g></g><g clip-path="url(#ff79528cbf)"><g clip-path="url(#b8fcee058c)"><path fill="#000000" d="M 61.515625 61.269531 L 88.871094 61.269531 L 88.871094 88.246094 L 61.515625 88.246094 Z M 61.515625 61.269531 " fill-opacity="1" fill-rule="nonzero"/></g></g><g clip-path="url(#283ccbe80f)"><g clip-path="url(#e47368ba82)"><path fill="#000000" d="M 24.832031 99.019531 L 51.8125 99.019531 L 51.8125 126.371094 L 24.832031 126.371094 Z M 24.832031 99.019531 " fill-opacity="1" fill-rule="nonzero"/></g></g></svg>