<svg xmlns="http://www.w3.org/2000/svg" xmlns:xlink="http://www.w3.org/1999/xlink" width="200" zoomAndPan="magnify" viewBox="0 0 150 149.999998" height="200" preserveAspectRatio="xMidYMid meet" version="1.0"><defs><clipPath id="f62ffb0856"><path d="M 92.628906 25.292969 L 119.84375 25.292969 L 119.84375 52.507812 L 92.628906 52.507812 Z M 92.628906 25.292969 " clip-rule="nonzero"/></clipPath><clipPath id="0ba62841fd"><path d="M 106.234375 25.292969 C 98.71875 25.292969 92.628906 31.386719 92.628906 38.902344 C 92.628906 46.417969 98.71875 52.507812 106.234375 52.507812 C 113.75 52.507812 119.84375 46.417969 119.84375 38.902344 C 119.84375 31.386719 113.75 25.292969 106.234375 25.292969 " clip-rule="nonzero"/></clipPath><clipPath id="ad00ba91b0"><path d="M 33.789062 61.394531 L 61.003906 61.394531 L 61.003906 88.605469 L 33.789062 88.605469 Z M 33.789062 61.394531 " clip-rule="nonzero"/></clipPath><clipPath id="83a0a7a90f"><path d="M 47.394531 61.394531 C 39.878906 61.394531 33.789062 67.484375 33.789062 75 C 33.789062 82.515625 39.878906 88.605469 47.394531 88.605469 C 54.910156 88.605469 61.003906 82.515625 61.003906 75 C 61.003906 67.484375 54.910156 61.394531 47.394531 61.394531 " clip-rule="nonzero"/></clipPath><clipPath id="12d6f84934"><path d="M 92.628906 61.394531 L 119.84375 61.394531 L 119.84375 88.605469 L 92.628906 88.605469 Z M 92.628906 61.394531 " clip-rule="nonzero"/></clipPath><clipPath id="0a8a3b0122"><path d="M 106.234375 61.394531 C 98.71875 61.394531 92.628906 67.484375 92.628906 75 C 92.628906 82.515625 98.71875 88.605469 106.234375 88.605469 C 113.75 88.605469 119.84375 82.515625 119.84375 75 C 119.84375 67.484375 113.75 61.394531 106.234375 61.394531 " clip-rule="nonzero"/></clipPath><clipPath id="da26f28e1b"><path d="M 33.789062 99.019531 L 61.003906 99.019531 L 61.003906 126.234375 L 33.789062 126.234375 Z M 33.789062 99.019531 " clip-rule="nonzero"/></clipPath><clipPath id="8fe668664d"><path d="M 47.394531 99.019531 C 39.878906 99.019531 33.789062 105.113281 33.789062 112.625 C 33.789062 120.140625 39.878906 126.234375 47.394531 126.234375 C 54.910156 126.234375 61.003906 120.140625 61.003906 112.625 C 61.003906 105.113281 54.910156 99.019531 47.394531 99.019531 " clip-rule="nonzero"/></clipPath><clipPath id="ac853d4aaa"><path d="M 92.628906 99.019531 L 119.84375 99.019531 L 119.84375 126.234375 L 92.628906 126.234375 Z M 92.628906 99.019531 " clip-rule="nonzero"/></clipPath><clipPath id="294f136a45"><path d="M 106.234375 99.019531 C 98.71875 99.019531 92.628906 105.113281 92.628906 112.625 C 92.628906 120.140625 98.71875 126.234375 106.234375 126.234375 C 113.75 126.234375 119.84375 120.140625 119.84375 112.625 C 119.84375 105.113281 113.75 99.019531 106.234375 99.019531 " clip-rule="nonzero"/></clipPath><clipPath id="8402af51d5"><path d="M 33.789062 25.292969 L 61.003906 25.292969 L 61.003906 52.507812 L 33.789062 52.507812 Z M 33.789062 25.292969 " clip-rule="nonzero"/></clipPath><clipPath id="3b048b23dc"><path d="M 47.394531 25.292969 C 39.878906 25.292969 33.789062 31.386719 33.789062 38.902344 C 33.789062 46.417969 39.878906 52.507812 47.394531 52.507812 C 54.910156 52.507812 61.003906 46.417969 61.003906 38.902344 C 61.003906 31.386719 54.910156 25.292969 47.394531 25.292969 " clip-rule="nonzero"/></clipPath></defs><g clip-path="url(#f62ffb0856)"><g clip-path="url(#0ba62841fd)"><path fill="#000000" d="M 92.628906 25.292969 L 119.84375 25.292969 L 119.84375 52.507812 L 92.628906 52.507812 Z M 92.628906 25.292969 " fill-opacity="1" fill-rule="nonzero"/></g></g><g clip-path="url(#ad00ba91b0)"><g clip-path="url(#83a0a7a90f)"><path fill="#000000" d="M 33.789062 61.394531 L 61.003906 61.394531 L 61.003906 88.605469 L 33.789062 88.605469 Z M 33.789062 61.394531 " fill-opacity="1" fill-rule="nonzero"/></g></g><g clip-path="url(#12d6f84934)"><g clip-path="url(#0a8a3b0122)"><path fill="#000000" d="M 92.628906 61.394531 L 119.84375 61.394531 L 119.84375 88.605469 L 92.628906 88.605469 Z M 92.628906 61.394531 " fill-opacity="1" fill-rule="nonzero"/></g></g><g clip-path="url(#da26f28e1b)"><g clip-path="url(#8fe668664d)"><path fill="#000000" d="M 33.789062 99.019531 L 61.003906 99.019531 L 61.003906 126.234375 L 33.789062 126.234375 Z M 33.789062 99.019531 " fill-opacity="1" fill-rule="nonzero"/></g></g><g clip-path="url(#ac853d4aaa)"><g clip-path="url(#294f136a45)"><path fill="#000000" d="M 92.628906 99.019531 L 119.84375 99.019531 L 119.84375 126.234375 L 92.628906 126.234375 Z M 92.628906 99.019531 " fill-opacity="1" fill-rule="nonzero"/></g></g><g clip-path="url(#8402af51d5)"><g clip-path="url(#3b048b23dc)"><path fill="#000000" d="M 33.789062 25.292969 L 61.003906 25.292969 L 61.003906 52.507812 L 33.789062 52.507812 Z M 33.789062 25.292969 " fill-opacity="1" fill-rule="nonzero"/></g></g></svg>