<svg xmlns="http://www.w3.org/2000/svg" xmlns:xlink="http://www.w3.org/1999/xlink" width="200" zoomAndPan="magnify" viewBox="0 0 150 149.999998" height="200" preserveAspectRatio="xMidYMid meet" version="1.0"><defs><clipPath id="5a61cb956a"><path d="M 95.113281 28.527344 L 122.46875 28.527344 L 122.46875 55.507812 L 95.113281 55.507812 Z M 95.113281 28.527344 " clip-rule="nonzero"/></clipPath><clipPath id="8c54e4a990"><path d="M 108.722656 28.527344 C 101.207031 28.527344 95.113281 34.507812 95.113281 41.886719 C 95.113281 49.265625 101.207031 55.246094 108.722656 55.246094 C 116.238281 55.246094 122.328125 49.265625 122.328125 41.886719 C 122.328125 34.507812 116.238281 28.527344 108.722656 28.527344 " clip-rule="nonzero"/></clipPath><clipPath id="47d83a4718"><path d="M 27.816406 96.035156 L 54.796875 96.035156 L 54.796875 123 L 27.816406 123 Z M 27.816406 96.035156 " clip-rule="nonzero"/></clipPath><clipPath id="029e8abd57"><path d="M 41.300781 96.035156 C 33.855469 96.035156 27.816406 102.070312 27.816406 109.515625 C 27.816406 116.964844 33.855469 123 41.300781 123 C 48.746094 123 54.785156 116.964844 54.785156 109.515625 C 54.785156 102.070312 48.746094 96.035156 41.300781 96.035156 " clip-rule="nonzero"/></clipPath></defs><g clip-path="url(#5a61cb956a)"><g clip-path="url(#8c54e4a990)"><path fill="#000000" d="M 95.113281 28.527344 L 122.46875 28.527344 L 122.46875 55.132812 L 95.113281 55.132812 Z M 95.113281 28.527344 " fill-opacity="1" fill-rule="nonzero"/></g></g><g clip-path="url(#47d83a4718)"><g clip-path="url(#029e8abd57)"><path fill="#000000" d="M 27.816406 96.035156 L 54.796875 96.035156 L 54.796875 123.011719 L 27.816406 123.011719 Z M 27.816406 96.035156 " fill-opacity="1" fill-rule="nonzero"/></g></g></svg>