<svg xmlns="http://www.w3.org/2000/svg" xmlns:xlink="http://www.w3.org/1999/xlink" width="200" zoomAndPan="magnify" viewBox="0 0 150 149.999998" height="200" preserveAspectRatio="xMidYMid meet" version="1.0"><defs><clipPath id="0d935948b0"><path d="M 98.347656 25.667969 L 125.191406 25.667969 L 125.191406 52.507812 L 98.347656 52.507812 Z M 98.347656 25.667969 " clip-rule="nonzero"/></clipPath><clipPath id="bbc179dc0c"><path d="M 111.769531 25.667969 C 104.359375 25.667969 98.347656 31.675781 98.347656 39.089844 C 98.347656 46.5 104.359375 52.507812 111.769531 52.507812 C 119.183594 52.507812 125.191406 46.5 125.191406 39.089844 C 125.191406 31.675781 119.183594 25.667969 111.769531 25.667969 " clip-rule="nonzero"/></clipPath><clipPath id="a2bd5b3b15"><path d="M 98.347656 99.019531 L 125.191406 99.019531 L 125.191406 125.859375 L 98.347656 125.859375 Z M 98.347656 99.019531 " clip-rule="nonzero"/></clipPath><clipPath id="461f9571cd"><path d="M 111.769531 99.019531 C 104.359375 99.019531 98.347656 105.027344 98.347656 112.441406 C 98.347656 119.851562 104.359375 125.859375 111.769531 125.859375 C 119.183594 125.859375 125.191406 119.851562 125.191406 112.441406 C 125.191406 105.027344 119.183594 99.019531 111.769531 99.019531 " clip-rule="nonzero"/></clipPath><clipPath id="d85c1868f0"><path d="M 24.957031 99.019531 L 51.800781 99.019531 L 51.800781 125.859375 L 24.957031 125.859375 Z M 24.957031 99.019531 " clip-rule="nonzero"/></clipPath><clipPath id="140e4ea9f4"><path d="M 38.378906 99.019531 C 30.964844 99.019531 24.957031 105.027344 24.957031 112.441406 C 24.957031 119.851562 30.964844 125.859375 38.378906 125.859375 C 45.789062 125.859375 51.800781 119.851562 51.800781 112.441406 C 51.800781 105.027344 45.789062 99.019531 38.378906 99.019531 " clip-rule="nonzero"/></clipPath><clipPath id="f774010add"><path d="M 24.957031 25.667969 L 51.800781 25.667969 L 51.800781 52.507812 L 24.957031 52.507812 Z M 24.957031 25.667969 " clip-rule="nonzero"/></clipPath><clipPath id="cb6223bdb2"><path d="M 38.378906 25.667969 C 30.964844 25.667969 24.957031 31.675781 24.957031 39.089844 C 24.957031 46.5 30.964844 52.507812 38.378906 52.507812 C 45.789062 52.507812 51.800781 46.5 51.800781 39.089844 C 51.800781 31.675781 45.789062 25.667969 38.378906 25.667969 " clip-rule="nonzero"/></clipPath></defs><g clip-path="url(#0d935948b0)"><g clip-path="url(#bbc179dc0c)"><path fill="#000000" d="M 98.347656 25.667969 L 125.191406 25.667969 L 125.191406 52.507812 L 98.347656 52.507812 Z M 98.347656 25.667969 " fill-opacity="1" fill-rule="nonzero"/></g></g><g clip-path="url(#a2bd5b3b15)"><g clip-path="url(#461f9571cd)"><path fill="#000000" d="M 98.347656 99.019531 L 125.191406 99.019531 L 125.191406 125.859375 L 98.347656 125.859375 Z M 98.347656 99.019531 " fill-opacity="1" fill-rule="nonzero"/></g></g><g clip-path="url(#d85c1868f0)"><g clip-path="url(#140e4ea9f4)"><path fill="#000000" d="M 24.957031 99.019531 L 51.800781 99.019531 L 51.800781 125.859375 L 24.957031 125.859375 Z M 24.957031 99.019531 " fill-opacity="1" fill-rule="nonzero"/></g></g><g clip-path="url(#f774010add)"><g clip-path="url(#cb6223bdb2)"><path fill="#000000" d="M 24.957031 25.667969 L 51.800781 25.667969 L 51.800781 52.507812 L 24.957031 52.507812 Z M 24.957031 25.667969 " fill-opacity="1" fill-rule="nonzero"/></g></g></svg>