<svg xmlns="http://www.w3.org/2000/svg" xmlns:xlink="http://www.w3.org/1999/xlink" width="200" zoomAndPan="magnify" viewBox="0 0 150 149.999998" height="200" preserveAspectRatio="xMidYMid meet" version="1.0"><defs><clipPath id="137fb82dd1"><path d="M 98.347656 25.667969 L 125.191406 25.667969 L 125.191406 52.507812 L 98.347656 52.507812 Z M 98.347656 25.667969 " clip-rule="nonzero"/></clipPath><clipPath id="4749e49e63"><path d="M 111.769531 25.667969 C 104.359375 25.667969 98.347656 31.675781 98.347656 39.089844 C 98.347656 46.5 104.359375 52.507812 111.769531 52.507812 C 119.183594 52.507812 125.191406 46.5 125.191406 39.089844 C 125.191406 31.675781 119.183594 25.667969 111.769531 25.667969 " clip-rule="nonzero"/></clipPath><clipPath id="82cd2fd0e1"><path d="M 61.496094 61.632812 L 88.644531 61.632812 L 88.644531 88.402344 L 61.496094 88.402344 Z M 61.496094 61.632812 " clip-rule="nonzero"/></clipPath><clipPath id="52a0b159f0"><path d="M 75 61.632812 C 67.542969 61.632812 61.496094 67.617188 61.496094 75 C 61.496094 82.382812 67.542969 88.367188 75 88.367188 C 82.457031 88.367188 88.503906 82.382812 88.503906 75 C 88.503906 67.617188 82.457031 61.632812 75 61.632812 " clip-rule="nonzero"/></clipPath><clipPath id="4640604ea4"><path d="M 98.347656 99.019531 L 125.191406 99.019531 L 125.191406 125.859375 L 98.347656 125.859375 Z M 98.347656 99.019531 " clip-rule="nonzero"/></clipPath><clipPath id="77306b47f2"><path d="M 111.769531 99.019531 C 104.359375 99.019531 98.347656 105.027344 98.347656 112.441406 C 98.347656 119.851562 104.359375 125.859375 111.769531 125.859375 C 119.183594 125.859375 125.191406 119.851562 125.191406 112.441406 C 125.191406 105.027344 119.183594 99.019531 111.769531 99.019531 " clip-rule="nonzero"/></clipPath><clipPath id="523a4b7087"><path d="M 24.957031 99.019531 L 51.800781 99.019531 L 51.800781 125.859375 L 24.957031 125.859375 Z M 24.957031 99.019531 " clip-rule="nonzero"/></clipPath><clipPath id="04828ff0f8"><path d="M 38.378906 99.019531 C 30.964844 99.019531 24.957031 105.027344 24.957031 112.441406 C 24.957031 119.851562 30.964844 125.859375 38.378906 125.859375 C 45.789062 125.859375 51.800781 119.851562 51.800781 112.441406 C 51.800781 105.027344 45.789062 99.019531 38.378906 99.019531 " clip-rule="nonzero"/></clipPath><clipPath id="9fa6ef247f"><path d="M 24.957031 25.667969 L 51.800781 25.667969 L 51.800781 52.507812 L 24.957031 52.507812 Z M 24.957031 25.667969 " clip-rule="nonzero"/></clipPath><clipPath id="eb4c854cb7"><path d="M 38.378906 25.667969 C 30.964844 25.667969 24.957031 31.675781 24.957031 39.089844 C 24.957031 46.5 30.964844 52.507812 38.378906 52.507812 C 45.789062 52.507812 51.800781 46.5 51.800781 39.089844 C 51.800781 31.675781 45.789062 25.667969 38.378906 25.667969 " clip-rule="nonzero"/></clipPath></defs><g clip-path="url(#137fb82dd1)"><g clip-path="url(#4749e49e63)"><path fill="#000000" d="M 98.347656 25.667969 L 125.191406 25.667969 L 125.191406 52.507812 L 98.347656 52.507812 Z M 98.347656 25.667969 " fill-opacity="1" fill-rule="nonzero"/></g></g><g clip-path="url(#82cd2fd0e1)"><g clip-path="url(#52a0b159f0)"><path fill="#000000" d="M 61.496094 61.632812 L 88.644531 61.632812 L 88.644531 88.402344 L 61.496094 88.402344 Z M 61.496094 61.632812 " fill-opacity="1" fill-rule="nonzero"/></g></g><g clip-path="url(#4640604ea4)"><g clip-path="url(#77306b47f2)"><path fill="#000000" d="M 98.347656 99.019531 L 125.191406 99.019531 L 125.191406 125.859375 L 98.347656 125.859375 Z M 98.347656 99.019531 " fill-opacity="1" fill-rule="nonzero"/></g></g><g clip-path="url(#523a4b7087)"><g clip-path="url(#04828ff0f8)"><path fill="#000000" d="M 24.957031 99.019531 L 51.800781 99.019531 L 51.800781 125.859375 L 24.957031 125.859375 Z M 24.957031 99.019531 " fill-opacity="1" fill-rule="nonzero"/></g></g><g clip-path="url(#9fa6ef247f)"><g clip-path="url(#eb4c854cb7)"><path fill="#000000" d="M 24.957031 25.667969 L 51.800781 25.667969 L 51.800781 52.507812 L 24.957031 52.507812 Z M 24.957031 25.667969 " fill-opacity="1" fill-rule="nonzero"/></g></g></svg>